<?xml version="1.0" encoding="UTF-8"?><svg xmlns="http://www.w3.org/2000/svg" viewBox="0 0 370.1 148"><defs><style>.d{fill:none;opacity:.3;}.e{fill:#fff;}.f{fill:#8b3f9e;}.g{fill:#363636;}</style></defs><g id="a"/><g id="b"><g id="c"><g><g><g><path class="g" d="M181.4,47.2V16.1h7.2v30.4c0,3.9,1.7,5.9,4.6,5.9,.6,0,1.3-.1,2.1-.2v6.2c-1.2,.2-2.2,.3-3.2,.3-7.7,0-10.7-5.3-10.7-11.5Z"/><path class="g" d="M219.4,29.5h7.2v28.6h-7.2v-3.5c-2.1,2.5-5.6,4.2-9.2,4.2-6,0-10.5-3.9-10.5-11.3V29.5h7.3v17.1c0,3.8,2.2,5.9,5.5,5.9,2.6,0,5.2-1.5,6.9-3.9V29.5h0Z"/><path class="g" d="M232.9,43.7c0-8.7,6.9-15,15.5-15s15.5,6.2,15.5,15-6.9,15-15.5,15-15.5-6.3-15.5-15Zm24,0c0-5-3.8-8.7-8.4-8.7s-8.3,3.7-8.3,8.7,3.8,8.7,8.3,8.7,8.4-3.7,8.4-8.7Z"/><path class="g" d="M291.8,29.5h7.1v24.4c-.1,9.6-6.5,15.7-16.1,15.7-3.9,0-8.6-1-11.8-2.4v-5.9c2.9,1.5,7.4,2.5,11.2,2.5,5.7,0,9.4-3.2,9.6-8.9-2.2,2.2-5.7,3.6-9.5,3.6-7.6,0-14-5.6-14-14.8s6.4-15,14-15c3.8,0,7.3,1.5,9.5,3.7v-2.9h0Zm-7.9,23.1c2.7,0,5.8-1.3,7.9-3.4v-11c-2.1-2.1-5.2-3.4-7.9-3.4-4.5,0-8.3,3.4-8.4,8.9,.1,5.6,3.9,8.9,8.4,8.9Z"/><path class="g" d="M334,40v18h-7.2v-17.1c0-3.8-2.2-5.9-5.6-5.9-2.6,0-5.2,1.5-6.9,3.9v19.2h-7.2V16.1h7.2v17c2.1-2.5,5.6-4.2,9.2-4.2,6.1-.1,10.5,3.8,10.5,11.1Z"/><path class="g" d="M341.1,19.8c0-2.5,2-4.3,4.5-4.3s4.5,1.8,4.5,4.3-2,4.3-4.5,4.3c-2.5,0-4.5-1.8-4.5-4.3Zm.9,38.2V29.4h7.2v28.6h-7.2Z"/><path class="g" d="M207.6,110.3c0,.6-.1,1.3-.1,1.8h-20.8c.6,5.2,4.1,8.1,9.2,8.1,3,0,7.1-1,10-2.2v5.6c-2.4,1.3-6.8,2.4-10.8,2.4-9.7,0-15.2-6.6-15.2-15.2,0-9.2,6.2-14.7,14.4-14.7,8.6-.1,13.3,5.9,13.3,14.2Zm-20.6-2.8h13.8c-.5-3.6-2.8-5.8-6.5-5.8s-6.4,2.2-7.3,5.8Z"/><path class="g" d="M232.5,96.7h7.8v.5l-14.2,28.1h-2.6l-14.2-28.1v-.5h7.7l7.8,16.9,7.7-16.9Z"/><path class="g" d="M269.5,110.3c0,.6-.1,1.3-.1,1.8h-20.8c.6,5.2,4.1,8.1,9.2,8.1,3,0,7.1-1,10-2.2v5.6c-2.4,1.3-6.8,2.4-10.8,2.4-9.7,0-15.2-6.6-15.2-15.2,0-9.2,6.2-14.7,14.4-14.7,8.6-.1,13.4,5.9,13.3,14.2Zm-20.5-2.8h13.8c-.5-3.6-2.8-5.8-6.5-5.8s-6.4,2.2-7.3,5.8Z"/><path class="g" d="M302.7,107.2v18h-7.2v-17.1c0-3.8-2.2-5.9-5.6-5.9-2.6,0-5.2,1.5-6.9,3.9v19.2h-7.2v-28.6h7.2v3.5c2.1-2.5,5.6-4.2,9.2-4.2,6,0,10.5,3.9,10.5,11.2Z"/><path class="g" d="M327.8,119.1v6c-1.6,.5-3.9,.8-5.9,.8-8.9,0-11.7-6.5-11.7-13.1v-20.2l6.5-4.1h.7v8.2h9.6v5.8h-9.6v10.4c0,4,1.9,6.8,5.9,6.8,1.5,0,3.1-.2,4.5-.6Z"/><path class="g" d="M332.2,87c0-2.5,2-4.3,4.5-4.3s4.5,1.8,4.5,4.3-2,4.3-4.5,4.3-4.5-1.8-4.5-4.3Zm.9,38.2v-28.6h7.2v28.6h-7.2Z"/></g><g><path class="f" d="M128,74c0-29.8-24.2-54-54-54S20,44.2,20,74c0,6.1,1,12,2.9,17.5H125.1c1.9-5.6,2.9-11.4,2.9-17.5Zm-54,4.2c-11.2,0-20.2-9.1-20.2-20.2s9.1-20.2,20.2-20.2,20.2,9.1,20.2,20.2-9,20.2-20.2,20.2Z"/><circle class="f" cx="74" cy="58" r="11.8"/><path class="f" d="M74,128c20.4,0,38.2-11.4,47.4-28.1H26.6c9.2,16.7,27,28.1,47.4,28.1Z"/><path class="e" d="M22.9,91.4c1,2.9,2.3,5.8,3.7,8.4H121.4c1.5-2.7,2.7-5.5,3.7-8.4H22.9Z"/><path class="e" d="M74,37.8c-11.2,0-20.2,9.1-20.2,20.2s9.1,20.2,20.2,20.2,20.2-9.1,20.2-20.2-9-20.2-20.2-20.2Zm0,32c-6.5,0-11.8-5.3-11.8-11.8s5.3-11.8,11.8-11.8,11.8,5.3,11.8,11.8-5.3,11.8-11.8,11.8Z"/></g></g><rect class="d" width="370.1" height="148"/></g></g></g></svg>